<?xml version="1.0" encoding="UTF-8" standalone="no"?>
<!DOCTYPE svg PUBLIC "-//W3C//DTD SVG 1.1//EN" "http://www.w3.org/Graphics/SVG/1.1/DTD/svg11.dtd">
<svg xmlns="http://www.w3.org/2000/svg" version="1.1" viewBox="0.00 0.00 240.00 177.00">
<path fill="#0891b2" d="
  M 117.64 0.00
  L 118.45 0.25
  A 0.68 0.68 0.0 0 1 118.93 0.90
  L 118.93 32.14
  A 0.87 0.87 0.0 0 1 118.06 33.01
  Q 84.53 32.97 49.25 33.01
  Q 41.18 33.02 35.91 39.66
  C 31.38 45.38 31.10 51.43 32.47 58.98
  A 3.61 3.51 -66.7 0 0 32.95 60.24
  C 37.46 67.65 42.38 71.96 51.01 71.99
  Q 66.87 72.05 73.53 72.02
  Q 96.94 71.91 111.64 89.08
  Q 115.02 93.02 117.11 97.00
  Q 120.56 103.56 121.33 105.70
  Q 125.79 118.15 124.06 132.44
  C 123.33 138.49 121.57 142.51 118.87 148.63
  Q 113.89 159.94 104.09 166.59
  Q 95.86 172.18 92.98 173.52
  Q 87.25 176.19 78.76 177.00
  L 1.10 177.00
  L 1.03 144.82
  A 0.81 0.81 0.0 0 1 1.83 144.01
  Q 43.38 143.95 75.52 144.05
  Q 82.43 144.07 87.11 139.18
  Q 96.15 129.74 92.40 117.94
  A 5.43 5.39 18.2 0 0 91.60 116.37
  L 86.35 109.17
  A 3.94 3.43 88.7 0 0 85.84 108.61
  Q 81.70 104.96 76.01 105.00
  Q 59.03 105.13 51.76 104.91
  Q 42.62 104.63 38.04 103.22
  C 28.83 100.39 18.05 94.12 12.08 86.17
  Q 2.41 73.32 0.00 57.64
  L 0.00 49.14
  Q 0.65 39.94 4.83 31.78
  C 8.21 25.19 10.71 18.87 16.80 13.65
  C 26.26 5.53 36.36 0.81 48.76 0.00
  L 117.64 0.00
  Z"
/>
<path fill="#475569" d="
  M 182.49 0.00
  C 187.46 0.41 193.15 0.45 197.47 1.15
  C 221.37 4.98 236.96 24.22 240.00 47.70
  L 240.00 55.89
  Q 238.93 65.80 234.78 74.78
  Q 224.66 96.66 201.24 103.26
  Q 198.69 103.98 192.01 104.00
  Q 175.60 104.04 167.98 104.07
  C 154.44 104.12 147.06 113.18 146.12 125.97
  Q 145.47 134.78 146.32 141.35
  A 2.03 1.98 -66.1 0 0 146.64 142.21
  Q 147.75 143.95 150.06 143.96
  Q 188.33 144.04 238.46 143.99
  A 0.54 0.54 0.0 0 1 239.00 144.53
  L 239.00 175.41
  A 0.59 0.58 90.0 0 1 238.42 176.00
  L 104.92 176.00
  A 0.19 0.19 0.0 0 1 104.80 175.67
  Q 109.60 171.15 112.58 167.84
  Q 120.33 159.23 124.33 147.28
  Q 130.57 128.58 126.25 109.00
  Q 125.34 104.84 123.46 100.77
  A 3.31 3.31 0.0 0 1 123.54 97.81
  Q 128.52 88.51 136.67 82.54
  C 143.09 77.84 151.13 73.51 159.28 73.26
  Q 179.47 72.66 187.23 72.94
  Q 200.61 73.43 207.21 62.52
  C 214.33 50.78 206.38 32.89 191.49 32.97
  Q 183.63 33.01 122.90 33.00
  A 0.90 0.90 0.0 0 1 122.00 32.10
  L 122.00 0.96
  A 0.67 0.67 0.0 0 1 122.48 0.32
  L 123.64 0.00
  L 182.49 0.00
  Z"
/>
</svg>
